# xmcd
#
# Track frame offsets: 
#        150
#        11521
#        25349
#        43516
#        60517
#        76002
#        91292
#        104339
#        121434
#        134101
#        147240
#        159491
#        181959
#        192798
#        207083
#        226236
#        239234
#        252030
#        266761
#        279499
#
# Disc length: 3970 seconds
#
# Revision: 0
# Processed by: cddbd v1.5.2PL0 Copyright (c) Steve Scherf et al.
# Submitted via: ExactAudioCopy v0.99pb4
#
DISCID=150f8014
DTITLE=Various Artist - Dave Hamilton's Detroit Funk
DYEAR=1900
DGENRE=Soul
TTITLE0=Billy Garner - 196x - Brand New Girl Part 1 (Previously Unissu
TTITLE0=ed Edit Of BGPS 007)
TTITLE1=O.C. Tolbert - 196x - The Grown Folks Thing (Previously Unissu
TTITLE1=ed)
TTITLE2=James Carpenter - 197x - Party Time (Previously Unissued)
TTITLE3=Dave Hamilton - 196x - Going To The Moon (Previously Unissued)
TTITLE4=The Dave Hamilton Voices - 197x - Because I Love You (Previous
TTITLE4=ly Unissued)
TTITLE5=Johnny Walker - 197x - Funky Trip (Previously Unissued)
TTITLE6=Billy Garner - 1971 - You're Wasting My Time (A-Side Of New Da
TTITLE6=y 101)
TTITLE7=Billy Garner - 1971 - You're Wasting My Time (B-Side Of New Da
TTITLE7=y 101)
TTITLE8=Bobby Dee - 1967 - Sweet Thing Part 1 (Demoristic 103 and Demori
TTITLE8=stic 104)
TTITLE9=Chico and Buddy - 1968 - Can You Dig It ( -Side Of Tayster 6025)
TTITLE10=The Barrino Brothers - 1969 - Just A Mistake ( -Side Of TCB 1
TTITLE10=00)
TTITLE11=The Future Kind - 197x - The Devil Is Gonna Get You (Previous
TTITLE11=ly Unissued)
TTITLE12=Dave Hamilton - 1970 - Pisces Pace ( -Side Of TCB 51)
TTITLE13=O.C. Tolbert - 1972 - Message To Mankind (B-Side Of New Day 1
TTITLE13=575)
TTITLE14=Dave Hamilton - 196x - Highland Sound (Previously Unissued)
TTITLE15=Billy Garner - 1971 - I Got Some (A-Side Of New Day 102)
TTITLE16=Billy Garner - 1971 - I Got Some (B-Side Of New Day 102)
TTITLE17=The Webb People - 1975 - Bump With Me (A-Side Of TCB 1446)
TTITLE18=Gip Roberts - 1973 - Hunchin' ( -Side Of TCB 758)
TTITLE19=Dave Hamilton - 1970 - The Deacons (Previously Unissued Alter
TTITLE19=nate Take Of TCB 50)
EXTD=
EXTT0=
EXTT1=
EXTT2=
EXTT3=
EXTT4=
EXTT5=
EXTT6=
EXTT7=
EXTT8=
EXTT9=
EXTT10=
EXTT11=
EXTT12=
EXTT13=
EXTT14=
EXTT15=
EXTT16=
EXTT17=
EXTT18=
EXTT19=
PLAYORDER=
